<?xml version="1.0" encoding="UTF-8"?> <svg xmlns="http://www.w3.org/2000/svg" width="18" height="18" viewBox="0 0 18 18" fill="none"> <path d="M18 1.92857V16.0714C18 17.1362 17.1362 18 16.0714 18H6.20357C6.59732 17.3411 7.10357 16.3929 7.30446 15.6174C7.425 15.1554 7.9192 13.271 7.9192 13.271C8.24063 13.8857 9.1808 14.404 10.1812 14.404C13.1585 14.404 15.3 11.6679 15.3 8.26875C15.3 5.01027 12.6402 2.57143 9.21696 2.57143C4.95804 2.57143 2.7 5.42813 2.7 8.54196C2.7 9.98839 3.47143 11.7884 4.70089 12.3629C4.88973 12.4513 4.98616 12.4112 5.03036 12.2304C5.0625 12.0937 5.23125 11.4228 5.30357 11.1134C5.32768 11.0129 5.31563 10.9286 5.23527 10.8321C4.82946 10.3379 4.5 9.42991 4.5 8.58214C4.5 6.40446 6.14732 4.29911 8.9558 4.29911C11.3786 4.29911 13.0781 5.95045 13.0781 8.31295C13.0781 10.9808 11.7321 12.829 9.97634 12.829C9.00804 12.829 8.28482 12.0295 8.51384 11.0451C8.79107 9.87187 9.32946 8.60625 9.32946 7.75848C9.32946 5.62902 6.29598 5.92232 6.29598 8.76295C6.29598 9.63482 6.58929 10.2295 6.58929 10.2295C5.32768 15.5652 5.13884 15.6335 5.4 17.9679L5.48839 18H1.92857C0.863839 18 0 17.1362 0 16.0714V1.92857C0 0.863839 0.863839 0 1.92857 0H16.0714C17.1362 0 18 0.863839 18 1.92857Z" fill="#606060"></path> </svg> 