<?xml version="1.0" encoding="UTF-8"?> <svg xmlns="http://www.w3.org/2000/svg" width="21" height="21" viewBox="0 0 21 21" fill="none"> <path d="M18.0469 2.29688H2.95312C2.59014 2.29688 2.29688 2.59014 2.29688 2.95312V18.0469C2.29688 18.4099 2.59014 18.7031 2.95312 18.7031H18.0469C18.4099 18.7031 18.7031 18.4099 18.7031 18.0469V2.95312C18.7031 2.59014 18.4099 2.29688 18.0469 2.29688ZM12.2739 7.19619H15.1122V7.8873H12.2739V7.19619ZM10.5 12.8953C10.3672 13.1473 10.1777 13.365 9.94629 13.5311C9.7043 13.6992 9.43564 13.8223 9.15059 13.894C8.85235 13.974 8.54469 14.0133 8.23594 14.0109H4.83984V7.01572H8.1416C8.47588 7.01572 8.77939 7.04648 9.05625 7.10391C9.33105 7.16133 9.56484 7.25977 9.76172 7.39307C9.95654 7.52637 10.1104 7.70479 10.219 7.92627C10.3257 8.1457 10.3811 8.42051 10.3811 8.74658C10.3811 9.09932 10.3011 9.39053 10.1411 9.62637C9.9791 9.86221 9.74531 10.0529 9.42744 10.2026C9.86016 10.3257 10.178 10.5451 10.3872 10.8527C10.6005 11.1645 10.7051 11.5377 10.7051 11.9766C10.7051 12.3334 10.6374 12.639 10.5 12.8953ZM16.2176 11.8125H12.559C12.559 12.2104 12.6964 12.5918 12.9035 12.7969C13.1127 12.9999 13.4121 13.1024 13.8038 13.1024C14.0868 13.1024 14.3268 13.0307 14.5318 12.8892C14.7349 12.7477 14.8579 12.5979 14.903 12.4421H16.1294C15.9325 13.0512 15.6331 13.4859 15.2271 13.7484C14.8251 14.0109 14.3329 14.1422 13.7607 14.1422C13.3608 14.1422 13.002 14.0766 12.68 13.9515C12.3703 13.8305 12.0914 13.6459 11.8617 13.408C11.6353 13.1637 11.4602 12.8764 11.347 12.5631C11.2219 12.2165 11.1604 11.8515 11.1645 11.4844C11.1645 11.105 11.228 10.7522 11.3511 10.4241C11.5869 9.78633 12.0771 9.27568 12.7025 9.01113C13.0368 8.87168 13.3957 8.80195 13.7587 8.80605C14.1894 8.80605 14.5626 8.88809 14.8866 9.05625C15.1986 9.21683 15.4694 9.44698 15.6782 9.72891C15.8854 10.0099 16.031 10.3298 16.1232 10.6907C16.2114 11.0455 16.2422 11.4187 16.2176 11.8125V11.8125ZM13.7156 9.85195C13.4941 9.85195 13.3075 9.89092 13.164 9.9668C13.0204 10.0427 12.9015 10.137 12.8112 10.2457C12.7253 10.3506 12.6618 10.4721 12.6246 10.6025C12.5918 10.7112 12.5692 10.822 12.561 10.9348H14.8271C14.7943 10.58 14.6713 10.3175 14.5072 10.1329C14.335 9.95039 14.0581 9.85195 13.7156 9.85195V9.85195ZM8.61943 9.64482C8.79785 9.51562 8.88398 9.30234 8.88398 9.00908C8.89014 8.86963 8.86143 8.73223 8.7999 8.60713C8.74453 8.50664 8.6625 8.42256 8.56201 8.36309C8.45782 8.2999 8.3421 8.25807 8.22158 8.24004C8.09033 8.21543 7.95703 8.20313 7.82578 8.20518H6.38408V9.83965H7.94473C8.21338 9.8417 8.44102 9.77607 8.61943 9.64482V9.64482ZM8.86143 11.1214C8.66045 10.9676 8.3918 10.8917 8.05752 10.8917H6.37998V12.8194H8.02471C8.17852 12.8194 8.32002 12.8051 8.45742 12.7764C8.59482 12.7477 8.71787 12.6984 8.82246 12.6287C8.92705 12.561 9.01113 12.4688 9.07471 12.3498C9.13623 12.2309 9.16699 12.0791 9.16699 11.8966C9.16699 11.5336 9.06445 11.2772 8.86143 11.1214V11.1214Z" fill="#606060"></path> </svg> 