<?xml version="1.0" encoding="UTF-8"?> <svg xmlns="http://www.w3.org/2000/svg" width="512" height="512" viewBox="0 0 512 512" fill="none"> <g clip-path="url(#clip0)"> <path d="M64.5124 257.993C64.1685 257.366 63.9921 256.661 64.0004 255.945C63.9976 255.241 64.1738 254.547 64.5124 253.929C64.9512 253.198 65.582 252.6 66.3364 252.201L439.68 32.7773C441.6 31.6253 443.648 31.6573 445.536 32.7133C446.311 33.1192 446.971 33.7134 447.456 34.4413C447.845 35.0749 448.035 35.8107 448 36.5533L448 475.337C448.037 476.08 447.847 476.816 447.456 477.449C446.971 478.177 446.311 478.771 445.536 479.177C444.648 479.705 443.632 479.978 442.599 479.966C441.567 479.955 440.557 479.66 439.68 479.113L66.3364 259.721C65.583 259.321 64.9525 258.724 64.5124 257.993V257.993ZM50.1124 224.585C44.5944 227.753 40.01 232.321 36.8219 237.827C33.6339 243.333 31.9551 249.583 31.9551 255.945C31.9551 262.308 33.6339 268.558 36.8219 274.064C40.01 279.57 44.5944 284.138 50.1124 287.305L423.456 506.729C448.352 521.353 480 503.817 480 475.369L480 36.5533C480 8.10529 448.32 -9.46272 423.456 5.19328L50.1124 224.585Z" fill="#C5A47E"></path> </g> <defs> <clipPath id="clip0"> <rect width="512" height="512" fill="white" transform="translate(0 512) rotate(-90)"></rect> </clipPath> </defs> </svg> 